<?xml version="1.0" encoding="UTF-8" standalone="no"?>
<svg
   xmlns:dc="http://purl.org/dc/elements/1.1/"
   xmlns:cc="http://creativecommons.org/ns#"
   xmlns:rdf="http://www.w3.org/1999/02/22-rdf-syntax-ns#"
   xmlns:svg="http://www.w3.org/2000/svg"
   xmlns="http://www.w3.org/2000/svg"
   id="svg8"
   version="1.1"
   viewBox="0 0 256 256"
   height="256"
   width="256">
  <title
     id="title4769">NonStory Logo</title>
  <defs
     id="defs2" />
  <metadata
     id="metadata5">
    <rdf:RDF>
      <cc:Work
         rdf:about="">
        <dc:format>image/svg+xml</dc:format>
        <dc:type
           rdf:resource="http://purl.org/dc/dcmitype/StillImage" />
        <dc:title>NonStory Logo</dc:title>
        <dc:creator>
          <cc:Agent>
            <dc:title>Rodion Borisov</dc:title>
          </cc:Agent>
        </dc:creator>
        <cc:license
           rdf:resource="http://creativecommons.org/licenses/by/4.0/" />
      </cc:Work>
      <cc:License
         rdf:about="http://creativecommons.org/licenses/by/4.0/">
        <cc:permits
           rdf:resource="http://creativecommons.org/ns#Reproduction" />
        <cc:permits
           rdf:resource="http://creativecommons.org/ns#Distribution" />
        <cc:requires
           rdf:resource="http://creativecommons.org/ns#Notice" />
        <cc:requires
           rdf:resource="http://creativecommons.org/ns#Attribution" />
        <cc:permits
           rdf:resource="http://creativecommons.org/ns#DerivativeWorks" />
      </cc:License>
    </rdf:RDF>
  </metadata>
  <g
     id="layer2">
    <path
       id="path4740"
       d="m 112.15192,201.59681 c -2.25366,-0.11254 -5.47318,0.90184 -5.47318,6.47454 0,12.7376 14.63232,28.65962 35.0284,28.65962 20.39291,0 35.02842,-15.92202 35.02842,-28.65962 0,-6.36881 -4.2066,-6.78915 -6.36881,-6.36881 -9.46722,1.84059 -17.12252,3.18441 -28.65961,3.18441 -11.53708,0 -19.19238,-1.34382 -28.65961,-3.18441 -0.27035,-0.0521 -0.57367,-0.0896 -0.89561,-0.10572 z m 0.89561,6.47454 c 0,0 9.55321,3.1844 28.65961,3.1844 19.10641,0 28.65961,-3.1844 28.65961,-3.1844 0,0 -6.3688,12.7376 -28.65961,12.7376 -22.2908,0 -28.65961,-12.7376 -28.65961,-12.7376 z"
       style="display:inline;fill:#12602c;fill-opacity:1;stroke-width:0.425064" />
    <path
       id="path4686"
       d="m 179.69584,224.64285 c 1.81222,7.13439 9.0611,11.44648 16.19537,9.63423 7.13428,-1.80959 11.44895,-9.05858 9.63674,-16.19297 -1.81222,-7.1344 -16.89095,-23.20745 -19.47602,-22.55184 -2.57975,0.65827 -8.16564,21.97884 -6.35609,29.11058 z"
       style="fill:#25c059;fill-opacity:1;stroke-width:0.425064" />
    <path
       style="fill:#25c059;fill-opacity:1;stroke-width:0.425064"
       d="m 103.65516,224.64285 c -1.81228,7.13439 -9.061398,11.44648 -16.195925,9.63423 -7.131856,-1.80959 -11.446685,-9.05858 -9.63707,-16.19297 1.809618,-7.1344 16.888859,-23.20745 19.474027,-22.55184 2.585165,0.65827 8.168588,21.97884 6.358968,29.11058 z"
       id="path4742" />
    <path
       id="path4750"
       d="m 143.46667,19.268021 c -9.70407,0 -17.90415,7.380566 -17.90415,16.114228 10e-6,2.966727 2.40386,5.371409 5.37058,5.371409 2.96673,0 5.37141,-2.404682 5.37141,-5.371409 0,-1.790419 2.79174,-5.37141 7.16216,-5.37141 5.37126,0 8.95207,3.580489 8.95207,7.161326 0,7.161679 -9.66319,8.941317 -10.74282,8.952071 -2.96672,0 -5.37141,2.404686 -5.37141,5.371409 V 58.6578 c 0,2.966722 2.40469,5.37141 5.37141,5.37141 2.96673,0 5.37141,-2.404688 5.37141,-5.37141 v -2.386832 c 1.42697,-0.286467 3.02032,-0.70902 4.6317,-1.337455 7.40517,-2.877205 11.4817,-8.549315 11.4817,-15.970602 0,-8.984325 -5.37071,-19.69489 -19.69406,-19.69489 z"
       style="fill:#25c059;fill-opacity:1;stroke-width:0.425064" />
  </g>
  <g
     style="display:inline"
     transform="translate(0,-161.53332)"
     id="layer1">
    <path
       id="path4540"
       d="m 45.761822,223.79673 -15.323873,15.32388 v 100.82474 l 15.323873,15.32387 h 19.058953 l 15.323877,-15.32387 v -14.01796 l 4.85253,4.85253 v 9.16543 l 15.323048,15.32387 h 28.07993 l 13.27576,-13.27659 13.27577,13.27659 h 46.26717 l 24.34319,-24.4893 v -37.10008 l -13.16701,-13.31312 13.16701,-13.16701 v -19.05895 l -24.34319,-24.34403 h -46.26717 l -13.34883,13.20354 -13.2027,-13.20354 h -18.91367 l -15.323875,15.32388 v 14.01796 l -4.997816,-4.99781 v -9.02015 L 73.840926,223.79673 Z"
       style="color:#000000;font-style:normal;font-variant:normal;font-weight:normal;font-stretch:normal;font-size:400px;line-height:1.25;font-family:'VTF MisterPixel';-inkscape-font-specification:'VTF MisterPixel';font-variant-ligatures:normal;font-variant-position:normal;font-variant-caps:normal;font-variant-numeric:normal;font-variant-alternates:normal;font-feature-settings:normal;text-indent:0;text-align:start;text-decoration:none;text-decoration-line:none;text-decoration-style:solid;text-decoration-color:#000000;letter-spacing:0px;word-spacing:0px;text-transform:none;writing-mode:lr-tb;direction:ltr;text-orientation:mixed;dominant-baseline:auto;baseline-shift:baseline;text-anchor:start;white-space:normal;shape-padding:0;clip-rule:nonzero;display:inline;overflow:visible;visibility:visible;opacity:1;isolation:auto;mix-blend-mode:normal;color-interpolation:sRGB;color-interpolation-filters:linearRGB;solid-color:#000000;solid-opacity:1;vector-effect:none;fill:#12602c;fill-opacity:1;fill-rule:nonzero;stroke:none;stroke-width:30.6471;stroke-linecap:butt;stroke-linejoin:bevel;stroke-miterlimit:4;stroke-dasharray:none;stroke-dashoffset:0;stroke-opacity:1;color-rendering:auto;image-rendering:auto;shape-rendering:auto;text-rendering:auto;enable-background:accumulate" />
    <path
       style="font-style:normal;font-variant:normal;font-weight:normal;font-stretch:normal;font-size:400px;line-height:1.25;font-family:'VTF MisterPixel';-inkscape-font-specification:'VTF MisterPixel';letter-spacing:0px;word-spacing:0px;display:inline;fill:#25c059;fill-opacity:1;stroke:none;stroke-width:0.425064"
       d="M 45.761545,239.12066 V 339.9454 h 19.059417 v -72.74533 h 8.292544 v 18.18633 h 9.020703 v 18.18633 h 9.165629 v 18.18634 h 9.020712 v 18.18633 h 28.07941 V 239.12066 h -18.91379 v 72.74533 h -8.29254 V 293.67966 H 92.027291 V 275.49332 H 83.007298 V 257.30699 H 73.84096 v -18.18633 z m 109.190465,0 v 9.01999 h -9.16563 v 37.24575 h 9.16563 v 9.02071 h 36.37266 v 35.64521 h -26.47888 v -18.18633 h -19.05941 v 18.91378 h 9.16563 v 9.16563 h 46.26645 v -9.16563 h 9.01999 v -37.10011 h -9.01999 v -9.16634 h -36.37267 v -35.49958 h 26.47888 v 18.18633 h 18.91378 v -19.05942 h -9.01999 v -9.01999 z"
       id="path4678" />
  </g>
</svg>
